<?xml version="1.0" ?><!DOCTYPE svg  PUBLIC '-//W3C//DTD SVG 1.1//EN'  'http://www.w3.org/Graphics/SVG/1.1/DTD/svg11.dtd'><svg enable-background="new 0 0 512 512" height="512px" version="1.1" viewBox="0 0 512 512" width="512px" xml:space="preserve" xmlns="http://www.w3.org/2000/svg" xmlns:xlink="http://www.w3.org/1999/xlink"><g><g id="apple_tv"><g><linearGradient gradientUnits="userSpaceOnUse" id="apple_tv_2_" x1="255.9995" x2="255.9995" y1="0" y2="512.0005"><stop offset="0" style="stop-color:#797979"/><stop offset="0.3218" style="stop-color:#444949"/><stop offset="1" style="stop-color:#000000"/></linearGradient><path d="M512,404.899C512,462.338,470.701,512,412.166,512H111.867      C53.331,512,0,462.338,0,404.899V101.554C0,44.113,53.331,0,111.867,0h300.299C470.701,0,512,44.113,512,101.554V404.899z" fill="url(#apple_tv_2_)" id="apple_tv_1_"/><g id="apple_logo"><g><path d="M127.344,305.842c0-40.373,0-80.747,0-121.118c40.294,0,80.587,0,120.883,0c0,40.371,0,80.745,0,121.118        C207.931,305.842,167.639,305.842,127.344,305.842z M230.474,227.097c-0.031-0.042-0.079-0.118-0.132-0.191        c-2.536-3.635-5.801-6.411-9.787-8.333c-3.324-1.597-6.837-2.45-10.511-2.72c-2.393-0.175-4.747-0.044-7.083,0.484        c-2.085,0.472-4.102,1.147-6.098,1.908c-1.993,0.758-3.98,1.53-5.985,2.252c-1.519,0.548-3.089,0.798-4.685,0.366        c-1.104-0.298-2.201-0.643-3.278-1.032c-2.163-0.786-4.297-1.655-6.467-2.421c-2.193-0.776-4.454-1.27-6.793-1.285        c-3.452-0.025-6.791,0.608-9.984,1.92c-6.491,2.669-11.314,7.192-14.605,13.369c-2.324,4.363-3.52,9.055-3.992,13.947        c-0.349,3.622-0.27,7.239,0.126,10.849c0.349,3.171,0.945,6.296,1.731,9.389c2.821,11.082,8.037,20.909,15.43,29.598        c1.679,1.974,3.531,3.765,5.746,5.143c1.626,1.014,3.37,1.714,5.294,1.887c1.696,0.155,3.355-0.076,4.996-0.484        c1.835-0.459,3.552-1.23,5.282-1.968c2.249-0.962,4.547-1.73,6.993-2.009c2.864-0.322,5.688-0.172,8.468,0.615        c1.747,0.493,3.401,1.236,5.059,1.959c2.258,0.986,4.579,1.699,7.066,1.789c2.279,0.08,4.439-0.357,6.481-1.385        c2.316-1.16,4.211-2.846,5.938-4.746c1.74-1.914,3.233-4.02,4.734-6.119c3.257-4.568,5.938-9.449,7.937-14.693        c0.409-1.074,0.771-2.161,1.139-3.191c-8.971-4.455-14.495-11.332-15.178-21.514        C217.628,240.281,222.303,232.775,230.474,227.097z M209.862,188.314c-0.231,0-0.4-0.012-0.569,0.002        c-1.409,0.113-2.792,0.371-4.137,0.806c-7.419,2.408-12.882,7.063-16.156,14.197c-1.594,3.474-2.423,7.105-2.007,10.962        c0.023,0.21,0.081,0.29,0.303,0.3c2.169,0.112,4.276-0.218,6.326-0.915c3.139-1.065,5.92-2.754,8.281-5.067        c4.961-4.863,7.76-10.742,8.03-17.749C209.967,190.01,209.888,189.164,209.862,188.314z" fill="none"/><path clip-rule="evenodd" d="M230.474,227.097c-8.171,5.678-12.846,13.184-12.16,23.383        c0.683,10.182,6.207,17.059,15.178,21.514c-0.367,1.03-0.73,2.117-1.139,3.191c-1.999,5.244-4.68,10.125-7.937,14.693        c-1.501,2.1-2.994,4.205-4.734,6.119c-1.727,1.9-3.622,3.586-5.938,4.746c-2.042,1.027-4.202,1.465-6.481,1.385        c-2.487-0.09-4.808-0.803-7.066-1.789c-1.658-0.723-3.312-1.466-5.059-1.959c-2.781-0.787-5.604-0.938-8.468-0.615        c-2.445,0.278-4.744,1.047-6.993,2.009c-1.73,0.737-3.447,1.509-5.282,1.968c-1.641,0.408-3.299,0.64-4.996,0.484        c-1.924-0.173-3.667-0.873-5.294-1.887c-2.215-1.378-4.067-3.169-5.746-5.143c-7.393-8.688-12.609-18.516-15.43-29.598        c-0.786-3.093-1.383-6.218-1.731-9.389c-0.396-3.61-0.475-7.228-0.126-10.849c0.472-4.893,1.668-9.584,3.992-13.947        c3.291-6.177,8.114-10.7,14.605-13.369c3.193-1.312,6.532-1.945,9.984-1.92c2.339,0.015,4.6,0.509,6.793,1.285        c2.17,0.766,4.304,1.635,6.467,2.421c1.077,0.39,2.173,0.734,3.278,1.032c1.595,0.432,3.166,0.182,4.685-0.366        c2.005-0.722,3.993-1.495,5.985-2.252c1.996-0.761,4.013-1.436,6.098-1.908c2.336-0.528,4.691-0.659,7.083-0.484        c3.674,0.27,7.187,1.123,10.511,2.72c3.986,1.922,7.251,4.698,9.787,8.333C230.395,226.979,230.443,227.055,230.474,227.097z" fill-rule="evenodd"/><path clip-rule="evenodd" d="M209.862,188.314c0.025,0.85,0.104,1.696,0.07,2.537        c-0.27,7.006-3.068,12.886-8.03,17.749c-2.361,2.313-5.142,4.001-8.281,5.067c-2.05,0.697-4.157,1.026-6.326,0.915        c-0.223-0.01-0.28-0.09-0.303-0.3c-0.417-3.857,0.413-7.489,2.007-10.962c3.274-7.134,8.737-11.789,16.156-14.197        c1.345-0.436,2.729-0.693,4.137-0.806C209.462,188.302,209.631,188.314,209.862,188.314z" fill-rule="evenodd"/></g></g><path d="M278.551,195.005v23.97h21.687v11.552h-21.687v45.008c0,10.347,2.926,16.209,11.359,16.209      c3.957,0,6.882-0.518,8.777-1.033l0.689,11.381c-2.925,1.207-7.575,2.069-13.426,2.069c-7.057,0-12.737-2.241-16.351-6.38      c-4.303-4.484-5.851-11.899-5.851-21.728v-45.527h-12.909v-11.552h12.909v-20.004L278.551,195.005z M324.674,218.975      l16.348,46.904c2.754,7.588,4.99,14.485,6.715,21.383h0.514c1.896-6.897,4.304-13.795,7.058-21.383l16.179-46.904h15.831      l-32.696,83.462h-14.46l-31.667-83.462H324.674z" id="tv"/></g></g></g></svg>