<?xml version="1.0" ?><!DOCTYPE svg  PUBLIC '-//W3C//DTD SVG 1.1//EN'  'http://www.w3.org/Graphics/SVG/1.1/DTD/svg11.dtd'><svg height="512px" style="enable-background:new 0 0 512 512;" version="1.1" viewBox="0 0 512 512" width="512px" xml:space="preserve" xmlns="http://www.w3.org/2000/svg" xmlns:xlink="http://www.w3.org/1999/xlink"><g id="_x39_2-icloud"><path d="M376,16H136C69.726,16,16,69.726,16,136v240c0,66.274,53.726,120,120,120h240c66.274,0,120-53.726,120-120V136   C496,69.726,442.274,16,376,16z M352.774,368H164.01c-40.484,0-73.411-32.924-73.411-73.371c0-32.887,21.938-61.354,52.541-70.223   c-0.083-1.026-0.105-2.072-0.105-3.144c0-28.88,23.533-52.4,52.436-52.4c7.317,0,14.389,1.488,20.929,4.362   c12.984-21.823,36.98-35.803,62.965-35.803c40.484,0,73.411,32.904,73.411,73.356c0,3.542-0.253,7.043-0.731,10.48   c41.125-0.336,74.143,32.688,74.143,73.37C426.186,335.076,393.256,368,352.774,368z"/></g><g id="Layer_1"/></svg>