<?xml version="1.0" encoding="UTF-8"?>
<!DOCTYPE svg PUBLIC "-//W3C//DTD SVG 1.1//EN" "http://www.w3.org/Graphics/SVG/1.1/DTD/svg11.dtd">
<svg xmlns="http://www.w3.org/2000/svg" version="1.1" width="1024px" height="1024px" style="shape-rendering:geometricPrecision; text-rendering:geometricPrecision; image-rendering:optimizeQuality; fill-rule:evenodd; clip-rule:evenodd" xmlns:xlink="http://www.w3.org/1999/xlink">
<g><path style="opacity:0.987" fill="#979797" d="M 716.5,-0.5 C 735.167,-0.5 753.833,-0.5 772.5,-0.5C 897.529,101.068 961.862,232.901 965.5,395C 962.8,552.377 901.8,681.711 782.5,783C 703.516,846.798 613.183,883.632 511.5,893.5C 511.5,905.5 511.5,917.5 511.5,929.5C 547.168,929.333 582.835,929.5 618.5,930C 639.357,932.69 650.357,944.523 651.5,965.5C 650.464,983.705 641.13,995.205 623.5,1000C 525.5,1000.67 427.5,1000.67 329.5,1000C 311.69,995.183 302.356,983.516 301.5,965C 302.241,949.189 309.907,938.189 324.5,932C 328.114,931.055 331.781,930.388 335.5,930C 370.832,929.5 406.165,929.333 441.5,929.5C 441.5,918.167 441.5,906.833 441.5,895.5C 300.74,884.867 183.573,827.201 90,722.5C 78.6149,707.874 77.6149,692.54 87,676.5C 102.342,660.408 119.509,658.241 138.5,670C 201.52,743.266 280.187,791.599 374.5,815C 517.005,842.545 643.005,809.212 752.5,715C 858.909,614.582 905.409,491.082 892,344.5C 875.107,223.822 818.941,126.322 723.5,52C 706.674,36.381 704.34,18.881 716.5,-0.5 Z"/></g>
<g><path style="opacity:0.998" fill="#34aadb" d="M 443.5,22.5 C 567.829,18.7712 670.662,63.4379 752,156.5C 776.866,186.547 796.366,219.881 810.5,256.5C 791.273,253.687 771.939,252.853 752.5,254C 734.391,256.303 719.558,264.469 708,278.5C 698.748,293.334 689.748,308.334 681,323.5C 668.359,340.903 651.193,349.403 629.5,349C 620.545,352.407 616.212,358.907 616.5,368.5C 617.564,380.221 619.064,391.887 621,403.5C 622.634,418.146 621.3,432.479 617,446.5C 611.425,457.99 605.091,468.99 598,479.5C 596,485.5 594,491.5 592,497.5C 585.806,527.685 577.806,557.352 568,586.5C 566.027,591.779 563.527,596.779 560.5,601.5C 564.118,606.046 568.784,607.546 574.5,606C 588.288,599.891 600.122,591.058 610,579.5C 620.619,567.093 631.119,554.593 641.5,542C 650.538,534.71 660.871,531.544 672.5,532.5C 681.246,532.51 689.912,533.343 698.5,535C 704.023,541.522 709.857,547.688 716,553.5C 721.942,563.484 721.942,573.484 716,583.5C 705.976,591.185 699.643,601.185 697,613.5C 696.149,634.214 696.816,654.881 699,675.5C 701.838,676.675 704.671,676.509 707.5,675C 712.73,670.923 718.064,667.09 723.5,663.5C 658.81,725.326 581.477,759.826 491.5,767C 404.318,772.291 324.651,750.625 252.5,702C 246.247,697.387 240.247,692.554 234.5,687.5C 236.655,687.628 238.655,687.128 240.5,686C 244.072,682.185 247.405,678.185 250.5,674C 263.205,667.629 272.038,657.796 277,644.5C 278.823,638.21 280.489,631.877 282,625.5C 289.022,619.476 295.689,613.143 302,606.5C 309.7,594.448 317.033,582.115 324,569.5C 327.775,553.916 325.442,539.25 317,525.5C 312.333,520.167 307.667,514.833 303,509.5C 302.695,506.503 302.862,503.503 303.5,500.5C 301.796,491.758 297.962,484.091 292,477.5C 281.281,464.946 269.447,453.613 256.5,443.5C 250.923,434.089 243.256,426.923 233.5,422C 225.523,418.678 217.857,414.845 210.5,410.5C 209.049,407.164 208.383,403.664 208.5,400C 209.385,393.021 210.052,386.021 210.5,379C 209.119,368.553 208.452,358.053 208.5,347.5C 208.393,340.757 208.893,334.09 210,327.5C 215.663,325.419 221.163,322.919 226.5,320C 228.744,319.094 231.077,318.594 233.5,318.5C 240.353,319.617 247.019,321.45 253.5,324C 260.167,324.333 266.833,324.667 273.5,325C 276.458,325.229 278.958,326.396 281,328.5C 281.115,342.207 281.782,355.874 283,369.5C 288.835,386.835 295.502,403.835 303,420.5C 303.577,426.718 302.91,432.718 301,438.5C 306.361,445.934 313.528,449.101 322.5,448C 325.463,445.125 327.296,441.625 328,437.5C 335.879,430.62 344.045,424.12 352.5,418C 358.488,414.506 364.821,411.839 371.5,410C 385.787,406.929 399.787,402.929 413.5,398C 417.288,393.594 420.455,388.761 423,383.5C 424.873,381.291 427.04,379.458 429.5,378C 446.69,374.023 464.023,370.69 481.5,368C 489.015,366.163 496.015,363.163 502.5,359C 507.621,354.26 510.788,348.427 512,341.5C 512.151,331.126 511.818,320.793 511,310.5C 513.933,305.278 518.433,302.445 524.5,302C 535.167,301.667 545.833,301.333 556.5,301C 562.264,299.285 567.93,297.285 573.5,295C 591.932,295.245 599.432,286.412 596,268.5C 592.551,262.389 587.385,258.556 580.5,257C 572.21,255.879 563.876,255.213 555.5,255C 551.705,253.269 548.038,251.269 544.5,249C 537.303,241.469 529.803,234.302 522,227.5C 517.958,218.573 512.791,210.406 506.5,203C 489.434,191.605 472.101,180.605 454.5,170C 449.681,166.512 445.181,162.679 441,158.5C 441,152.5 441,146.5 441,140.5C 434.516,134.926 427.849,129.593 421,124.5C 418.093,121.02 416.593,117.02 416.5,112.5C 417.517,105.767 418.85,99.1004 420.5,92.5C 419.336,86.8629 418.836,81.1962 419,75.5C 419.75,74.8742 420.584,74.3742 421.5,74C 426.167,73.6667 430.833,73.3333 435.5,73C 438.612,72.375 440.445,70.5417 441,67.5C 441.525,61.1566 441.359,54.8232 440.5,48.5C 441.502,39.8247 442.502,31.158 443.5,22.5 Z"/></g>
<g><path style="opacity:1" fill="#4bd864" d="M 443.5,22.5 C 442.502,31.158 441.502,39.8247 440.5,48.5C 441.359,54.8232 441.525,61.1566 441,67.5C 440.445,70.5417 438.612,72.375 435.5,73C 430.833,73.3333 426.167,73.6667 421.5,74C 420.584,74.3742 419.75,74.8742 419,75.5C 418.836,81.1962 419.336,86.8629 420.5,92.5C 418.85,99.1004 417.517,105.767 416.5,112.5C 416.593,117.02 418.093,121.02 421,124.5C 427.849,129.593 434.516,134.926 441,140.5C 441,146.5 441,152.5 441,158.5C 445.181,162.679 449.681,166.512 454.5,170C 472.101,180.605 489.434,191.605 506.5,203C 512.791,210.406 517.958,218.573 522,227.5C 529.803,234.302 537.303,241.469 544.5,249C 548.038,251.269 551.705,253.269 555.5,255C 563.876,255.213 572.21,255.879 580.5,257C 587.385,258.556 592.551,262.389 596,268.5C 599.432,286.412 591.932,295.245 573.5,295C 567.93,297.285 562.264,299.285 556.5,301C 545.833,301.333 535.167,301.667 524.5,302C 518.433,302.445 513.933,305.278 511,310.5C 511.818,320.793 512.151,331.126 512,341.5C 510.788,348.427 507.621,354.26 502.5,359C 496.015,363.163 489.015,366.163 481.5,368C 464.023,370.69 446.69,374.023 429.5,378C 427.04,379.458 424.873,381.291 423,383.5C 420.455,388.761 417.288,393.594 413.5,398C 399.787,402.929 385.787,406.929 371.5,410C 364.821,411.839 358.488,414.506 352.5,418C 344.045,424.12 335.879,430.62 328,437.5C 327.296,441.625 325.463,445.125 322.5,448C 313.528,449.101 306.361,445.934 301,438.5C 302.91,432.718 303.577,426.718 303,420.5C 295.502,403.835 288.835,386.835 283,369.5C 281.782,355.874 281.115,342.207 281,328.5C 278.958,326.396 276.458,325.229 273.5,325C 266.833,324.667 260.167,324.333 253.5,324C 247.019,321.45 240.353,319.617 233.5,318.5C 231.077,318.594 228.744,319.094 226.5,320C 221.163,322.919 215.663,325.419 210,327.5C 208.893,334.09 208.393,340.757 208.5,347.5C 208.452,358.053 209.119,368.553 210.5,379C 210.052,386.021 209.385,393.021 208.5,400C 208.383,403.664 209.049,407.164 210.5,410.5C 217.857,414.845 225.523,418.678 233.5,422C 243.256,426.923 250.923,434.089 256.5,443.5C 269.447,453.613 281.281,464.946 292,477.5C 297.962,484.091 301.796,491.758 303.5,500.5C 302.862,503.503 302.695,506.503 303,509.5C 307.667,514.833 312.333,520.167 317,525.5C 325.442,539.25 327.775,553.916 324,569.5C 317.033,582.115 309.7,594.448 302,606.5C 295.689,613.143 289.022,619.476 282,625.5C 280.489,631.877 278.823,638.21 277,644.5C 272.038,657.796 263.205,667.629 250.5,674C 247.405,678.185 244.072,682.185 240.5,686C 238.655,687.128 236.655,687.628 234.5,687.5C 176.654,642.519 135.987,585.186 112.5,515.5C 113.683,514.496 115.016,513.662 116.5,513C 123.833,512.667 131.167,512.333 138.5,512C 139.766,511.691 140.933,511.191 142,510.5C 142.206,507.377 142.873,504.377 144,501.5C 150.154,495.682 155.154,489.015 159,481.5C 160.758,471.501 162.591,461.501 164.5,451.5C 164.024,446.881 162.191,442.881 159,439.5C 151.675,433.842 145.009,427.508 139,420.5C 138.333,397.167 138.333,373.833 139,350.5C 142.885,343.546 143.385,336.379 140.5,329C 140.795,326.077 142.129,323.743 144.5,322C 150.075,319.629 155.575,317.129 161,314.5C 163.595,306.916 164.761,299.082 164.5,291C 163.598,280.85 162.931,270.684 162.5,260.5C 164.027,244.863 164.527,229.196 164,213.5C 163.309,210.142 161.309,208.142 158,207.5C 152.966,208.14 148.132,209.473 143.5,211.5C 142.584,211.457 141.917,211.124 141.5,210.5C 155.035,184.961 172.035,161.961 192.5,141.5C 199.187,135.832 204.854,129.832 209.5,123.5C 275.336,62.6041 353.336,28.9374 443.5,22.5 Z"/></g>
<g><path style="opacity:0.961" fill="#47ca8b" d="M 209.5,123.5 C 204.854,129.832 199.187,135.832 192.5,141.5C 197.441,134.89 203.108,128.89 209.5,123.5 Z"/></g>
<g><path style="opacity:0.992" fill="#34aadb" d="M 112.5,515.5 C 94.6908,464.351 88.5242,411.684 94,357.5C 99.1586,304.863 114.992,255.863 141.5,210.5C 141.917,211.124 142.584,211.457 143.5,211.5C 148.132,209.473 152.966,208.14 158,207.5C 161.309,208.142 163.309,210.142 164,213.5C 164.527,229.196 164.027,244.863 162.5,260.5C 162.931,270.684 163.598,280.85 164.5,291C 164.761,299.082 163.595,306.916 161,314.5C 155.575,317.129 150.075,319.629 144.5,322C 142.129,323.743 140.795,326.077 140.5,329C 143.385,336.379 142.885,343.546 139,350.5C 138.333,373.833 138.333,397.167 139,420.5C 145.009,427.508 151.675,433.842 159,439.5C 162.191,442.881 164.024,446.881 164.5,451.5C 162.591,461.501 160.758,471.501 159,481.5C 155.154,489.015 150.154,495.682 144,501.5C 142.873,504.377 142.206,507.377 142,510.5C 140.933,511.191 139.766,511.691 138.5,512C 131.167,512.333 123.833,512.667 116.5,513C 115.016,513.662 113.683,514.496 112.5,515.5 Z"/></g>
<g><path style="opacity:1" fill="#4cd864" d="M 810.5,256.5 C 824.3,289.032 832.8,323.032 836,358.5C 844.853,468.272 813.186,564.272 741,646.5C 735.298,652.37 729.465,658.036 723.5,663.5C 718.064,667.09 712.73,670.923 707.5,675C 704.671,676.509 701.838,676.675 699,675.5C 696.816,654.881 696.149,634.214 697,613.5C 699.643,601.185 705.976,591.185 716,583.5C 721.942,573.484 721.942,563.484 716,553.5C 709.857,547.688 704.023,541.522 698.5,535C 689.912,533.343 681.246,532.51 672.5,532.5C 660.871,531.544 650.538,534.71 641.5,542C 631.119,554.593 620.619,567.093 610,579.5C 600.122,591.058 588.288,599.891 574.5,606C 568.784,607.546 564.118,606.046 560.5,601.5C 563.527,596.779 566.027,591.779 568,586.5C 577.806,557.352 585.806,527.685 592,497.5C 594,491.5 596,485.5 598,479.5C 605.091,468.99 611.425,457.99 617,446.5C 621.3,432.479 622.634,418.146 621,403.5C 619.064,391.887 617.564,380.221 616.5,368.5C 616.212,358.907 620.545,352.407 629.5,349C 651.193,349.403 668.359,340.903 681,323.5C 689.748,308.334 698.748,293.334 708,278.5C 719.558,264.469 734.391,256.303 752.5,254C 771.939,252.853 791.273,253.687 810.5,256.5 Z"/></g>
</svg>
