<?xml version="1.0"?><svg data-name="Layer 1" id="Layer_1" viewBox="0 0 70 70" xmlns="http://www.w3.org/2000/svg" xmlns:xlink="http://www.w3.org/1999/xlink"><defs><style>.cls-1,.cls-12,.cls-7{fill:none;}.cls-2{fill:#dee1e5;}.cls-3{fill:#fff;}.cls-4{fill:#ef3d3d;}.cls-5{fill:#ff7e7e;}.cls-6{fill:#ffd41f;}.cls-12,.cls-7{stroke:#1a1a1a;stroke-width:1.5px;}.cls-7{stroke-linecap:round;stroke-linejoin:round;}.cls-8{fill:url(#New_Pattern_Swatch_4);}.cls-9{fill:url(#New_Pattern_Swatch_5);}.cls-10{fill:url(#New_Pattern_Swatch_2);}.cls-11{fill:url(#New_Pattern_Swatch_3);}.cls-12{stroke-miterlimit:10;}.cls-13{fill:url(#New_Pattern_Swatch_2-3);}.cls-14{fill:url(#New_Pattern_Swatch_3-3);}.cls-15{fill:url(#New_Pattern_Swatch_3-5);}.cls-16{fill:url(#New_Pattern_Swatch_3-7);}</style><pattern data-name="New Pattern Swatch 4" height="23.5" id="New_Pattern_Swatch_4" patternTransform="translate(-20.33 -10.67)" patternUnits="userSpaceOnUse" viewBox="0 0 23.5 23.5" width="23.5"><rect class="cls-1" height="23.5" width="23.5"/><rect class="cls-4" height="23.5" width="23.5"/></pattern><pattern data-name="New Pattern Swatch 5" height="23.5" id="New_Pattern_Swatch_5" patternTransform="translate(-20.33 -10.67)" patternUnits="userSpaceOnUse" viewBox="0 0 23.5 23.5" width="23.5"><rect class="cls-1" height="23.5" width="23.5"/><rect class="cls-5" height="23.5" width="23.5"/></pattern><pattern data-name="New Pattern Swatch 2" height="23.5" id="New_Pattern_Swatch_2" patternTransform="translate(-24.11 -53.13) scale(1.07 0.85)" patternUnits="userSpaceOnUse" viewBox="0 0 23.5 23.5" width="23.5"><rect class="cls-1" height="23.5" width="23.5"/><rect class="cls-2" height="23.5" width="23.5"/></pattern><pattern data-name="New Pattern Swatch 3" height="23.5" id="New_Pattern_Swatch_3" patternTransform="translate(-24.11 -53.13) scale(1.07 0.85)" patternUnits="userSpaceOnUse" viewBox="0 0 23.5 23.5" width="23.5"><rect class="cls-1" height="23.5" width="23.5"/><rect class="cls-3" height="23.5" width="23.5"/></pattern><pattern data-name="New Pattern Swatch 2" height="23.5" id="New_Pattern_Swatch_2-3" patternTransform="translate(62.15 -25.93) scale(0.97 0.76)" patternUnits="userSpaceOnUse" viewBox="0 0 23.5 23.5" width="23.5"><rect class="cls-1" height="23.5" width="23.5"/><rect class="cls-2" height="23.5" width="23.5"/></pattern><pattern data-name="New Pattern Swatch 3" height="23.5" id="New_Pattern_Swatch_3-3" patternTransform="translate(62.15 -25.93) scale(0.97 0.76)" patternUnits="userSpaceOnUse" viewBox="0 0 23.5 23.5" width="23.5"><rect class="cls-1" height="23.5" width="23.5"/><rect class="cls-3" height="23.5" width="23.5"/></pattern><pattern data-name="New Pattern Swatch 3" height="23.5" id="New_Pattern_Swatch_3-5" patternTransform="translate(-19.22 -79.06) scale(1.42)" patternUnits="userSpaceOnUse" viewBox="0 0 23.5 23.5" width="23.5"><rect class="cls-1" height="23.5" width="23.5"/><rect class="cls-3" height="23.5" width="23.5"/></pattern><pattern data-name="New Pattern Swatch 3" height="23.5" id="New_Pattern_Swatch_3-7" patternTransform="matrix(-1.42, 0, 0, 1.42, 63.09, -79.06)" patternUnits="userSpaceOnUse" viewBox="0 0 23.5 23.5" width="23.5"><rect class="cls-1" height="23.5" width="23.5"/><rect class="cls-3" height="23.5" width="23.5"/></pattern></defs><title/><path class="cls-6" d="M67,36.63A32,32,0,1,1,50.28,6.88,32.14,32.14,0,0,1,67,36.63Z"/><circle class="cls-7" cx="35" cy="35" r="32"/><path class="cls-8" d="M52.92,43.76A18.31,18.31,0,0,1,35,60.11a17.49,17.49,0,0,1-9.73-3,18.93,18.93,0,0,0,3.63.35,19.61,19.61,0,0,0,15.9-8.25A22.25,22.25,0,0,0,52.92,43.76Z"/><path class="cls-9" d="M44.81,49.26a19.61,19.61,0,0,1-15.9,8.25,18.93,18.93,0,0,1-3.63-.35,18.83,18.83,0,0,1-8.2-13.4A24.37,24.37,0,0,0,35,51.13,26.11,26.11,0,0,0,44.81,49.26Z"/><path class="cls-7" d="M52.92,43.76A18.32,18.32,0,0,1,35,60.11,18.32,18.32,0,0,1,17.08,43.76,24.36,24.36,0,0,0,35,51.14,24.36,24.36,0,0,0,52.92,43.76Z"/><path class="cls-10" d="M32.77,26.86c0,3.61-3.72,6.53-8.3,6.53-3.66,0-6.77-1.87-7.87-4.46A10,10,0,0,0,21.13,30c4.58,0,8.29-2.92,8.29-6.54A5.3,5.3,0,0,0,29,21.38,6.37,6.37,0,0,1,32.77,26.86Z"/><path class="cls-11" d="M29.42,23.44c0,3.62-3.71,6.54-8.29,6.54a10,10,0,0,1-4.53-1.05,5.18,5.18,0,0,1-.43-2.07c0-3.61,3.72-6.54,8.3-6.54A10,10,0,0,1,29,21.38,5.3,5.3,0,0,1,29.42,23.44Z"/><path class="cls-12" d="M32.77,26.85A5.69,5.69,0,0,1,31.1,30.8a9.22,9.22,0,0,1-6.63,2.6,9.19,9.19,0,0,1-6.63-2.6,5.69,5.69,0,0,1-1.67-3.95c0-3.6,3.71-6.53,8.3-6.53S32.77,23.25,32.77,26.85Z"/><path class="cls-13" d="M54.21,26.8c0,3.24-3.34,5.87-7.46,5.87-3.29,0-6.09-1.69-7.08-4a9,9,0,0,0,4.07,1c4.12,0,7.46-2.63,7.46-5.88a4.72,4.72,0,0,0-.38-1.86A5.72,5.72,0,0,1,54.21,26.8Z"/><path class="cls-14" d="M51.2,23.72c0,3.25-3.34,5.88-7.46,5.88a9,9,0,0,1-4.07-1,4.64,4.64,0,0,1-.38-1.85c0-3.25,3.34-5.88,7.46-5.88a9.14,9.14,0,0,1,4.07.94A4.72,4.72,0,0,1,51.2,23.72Z"/><path class="cls-12" d="M54.21,26.79a5.1,5.1,0,0,1-1.5,3.54,8.76,8.76,0,0,1-11.92,0,5.1,5.1,0,0,1-1.5-3.54c0-3.24,3.33-5.87,7.45-5.87S54.21,23.55,54.21,26.79Z"/><circle cx="45.45" cy="26.3" r="3.74"/><circle class="cls-15" cx="44.69" cy="25.95" r="1.48"/><circle cx="26.58" cy="26.3" r="3.74"/><circle class="cls-16" cx="27.35" cy="25.95" r="1.48"/></svg>