<?xml version="1.0" standalone="no"?><!DOCTYPE svg PUBLIC "-//W3C//DTD SVG 1.1//EN" "http://www.w3.org/Graphics/SVG/1.1/DTD/svg11.dtd"><svg t="1742947385652" class="icon" viewBox="0 0 1024 1024" version="1.1" xmlns="http://www.w3.org/2000/svg" p-id="1077" xmlns:xlink="http://www.w3.org/1999/xlink" width="200" height="200"><path d="M531.114667 358.485333h1.408a105.813333 105.813333 0 0 0 84.565333 42.282667 105.216 105.216 0 0 0 94.293333-57.6c7.808-14.933333 11.861333-31.573333 11.818667-48.426667a103.68 103.68 0 0 0-11.648-48.042666 105.216 105.216 0 0 0-94.378667-57.770667 105.770667 105.770667 0 0 0-105.813333 105.813333c0 17.664 4.394667 35.072 12.672 50.688l7.082667 13.056z m215.466666-17.834666h37.76a45.824 45.824 0 0 0 0-91.605334h-37.802666l2.432 7.68a125.610667 125.610667 0 0 1 0 76.245334l-2.432 7.68z m-506.922666 0h248.106666l-2.56-7.893334a119.594667 119.594667 0 0 1-6.144-38.016c0-12.928 2.048-25.770667 6.101334-38.016l2.56-7.893333H239.701333a45.866667 45.866667 0 0 0 0 91.818667z m377.386666 282.581333a105.728 105.728 0 0 0-105.813333 105.813333c0 17.706667 4.394667 35.072 12.672 50.688l7.168 13.013334h1.408a105.813333 105.813333 0 0 0 84.565333 42.325333 105.173333 105.173333 0 0 0 94.293334-57.6c7.808-14.933333 11.861333-31.573333 11.818666-48.426667a103.594667 103.594667 0 0 0-11.648-48.042666 105.258667 105.258667 0 0 0-94.464-57.770667z m167.253334 60.16h-37.76l2.432 7.68a125.482667 125.482667 0 0 1 0 76.202667l-2.432 7.68h37.802666a45.824 45.824 0 0 0 0-91.605334z m-296.405334 0H239.744a45.824 45.824 0 0 0 0 91.562667h248.149333l-2.56-7.850667a119.722667 119.722667 0 0 1-6.144-38.058667c0-12.885333 2.048-25.728 6.101334-37.973333l2.56-7.68z m12.202667-222.549333l-7.168-13.013334h-1.408a105.770667 105.770667 0 0 0-84.522667-42.282666 105.216 105.216 0 0 0-94.293333 57.6 104.106667 104.106667 0 0 0-11.818667 48.384c-0.042667 16.725333 3.925333 33.237333 11.648 48.085333a105.216 105.216 0 0 0 94.378667 57.770667 105.728 105.728 0 0 0 105.813333-105.813334c0-17.706667-4.352-35.114667-12.629333-50.773333z m-260.437333 96.426666h37.76l-2.432-7.68a125.610667 125.610667 0 0 1 0-76.245333l2.432-7.68h-37.76a45.824 45.824 0 0 0 0 91.605333z m544.682666-91.605333h-248.149333l2.56 7.850667c4.096 12.288 6.144 25.130667 6.101333 38.016 0.042667 12.928-2.005333 25.770667-6.058666 38.058666l-2.56 7.850667h248.106666a45.866667 45.866667 0 1 0 0-91.818667z" fill="#2B85FB" p-id="1078"></path></svg>