<?xml version="1.0" standalone="no"?><!DOCTYPE svg PUBLIC "-//W3C//DTD SVG 1.1//EN" "http://www.w3.org/Graphics/SVG/1.1/DTD/svg11.dtd"><svg t="1742948801875" class="icon" viewBox="0 0 1024 1024" version="1.1" xmlns="http://www.w3.org/2000/svg" p-id="70173" xmlns:xlink="http://www.w3.org/1999/xlink" width="200" height="200"><path d="M440.14 484.46H144.35c-22.06 0-40-17.94-40-40v-295.8c0-22.06 17.94-40 40-40h295.79c22.06 0 40 17.94 40 40v295.79c0 22.06-17.94 40.01-40 40.01z m-271.79-64h247.79v-247.8H168.35v247.8zM862.54 484.46h-295.8c-22.06 0-40-17.94-40-40v-295.8c0-22.06 17.94-40 40-40h295.79c22.06 0 40 17.94 40 40v295.79c0.01 22.06-17.94 40.01-39.99 40.01z m-271.8-64h247.79v-247.8H590.74v247.8zM440.14 906.96H144.35c-22.06 0-40-17.94-40-40V571.17c0-22.06 17.94-40 40-40h295.79c22.06 0 40 17.94 40 40v295.79c0 22.06-17.94 40-40 40z m-271.79-64h247.79V595.17H168.35v247.79zM862.54 906.96h-295.8c-22.06 0-40-17.94-40-40V571.17c0-22.06 17.94-40 40-40h295.79c22.06 0 40 17.94 40 40v295.79c0.01 22.06-17.94 40-39.99 40z m-271.8-64h247.79V595.17H590.74v247.79z" fill="#1296db" p-id="70174"></path></svg>