<?xml version="1.0"?><svg data-name="Layer 1" id="Layer_1" viewBox="0 0 70 70" xmlns="http://www.w3.org/2000/svg" xmlns:xlink="http://www.w3.org/1999/xlink"><defs><style>.cls-1,.cls-5,.cls-8{fill:none;}.cls-2{fill:#dee1e5;}.cls-3{fill:#fff;}.cls-4{fill:#ffd41f;}.cls-5,.cls-8{stroke:#1a1a1a;stroke-width:1.5px;}.cls-5{stroke-linecap:round;stroke-linejoin:round;}.cls-6{fill:url(#New_Pattern_Swatch_2);}.cls-7{fill:url(#New_Pattern_Swatch_3);}.cls-8{stroke-miterlimit:10;}.cls-9{fill:url(#New_Pattern_Swatch_3-3);}.cls-10{fill:url(#New_Pattern_Swatch_2-3);}.cls-11{fill:url(#New_Pattern_Swatch_3-5);}.cls-12{fill:url(#New_Pattern_Swatch_3-7);}.cls-13{fill:url(#New_Pattern_Swatch_2-5);}.cls-14{fill:url(#New_Pattern_Swatch_3-9);}.cls-15{fill:url(#New_Pattern_Swatch_2-7);}.cls-16{fill:url(#New_Pattern_Swatch_3-11);}</style><pattern data-name="New Pattern Swatch 2" height="23.5" id="New_Pattern_Swatch_2" patternTransform="matrix(-0.99, 0, 0, 0.99, 183.86, -61.2)" patternUnits="userSpaceOnUse" viewBox="0 0 23.5 23.5" width="23.5"><rect class="cls-1" height="23.5" width="23.5"/><rect class="cls-2" height="23.5" width="23.5"/></pattern><pattern data-name="New Pattern Swatch 3" height="23.5" id="New_Pattern_Swatch_3" patternTransform="matrix(-0.99, 0, 0, 0.99, 183.86, -61.2)" patternUnits="userSpaceOnUse" viewBox="0 0 23.5 23.5" width="23.5"><rect class="cls-1" height="23.5" width="23.5"/><rect class="cls-3" height="23.5" width="23.5"/></pattern><pattern data-name="New Pattern Swatch 3" height="23.5" id="New_Pattern_Swatch_3-3" patternTransform="matrix(-0.73, 0, 0, 0.73, 39.23, -95.96)" patternUnits="userSpaceOnUse" viewBox="0 0 23.5 23.5" width="23.5"><rect class="cls-1" height="23.5" width="23.5"/><rect class="cls-3" height="23.5" width="23.5"/></pattern><pattern data-name="New Pattern Swatch 2" height="23.5" id="New_Pattern_Swatch_2-3" patternTransform="translate(-110.47 -61.2) scale(0.99)" patternUnits="userSpaceOnUse" viewBox="0 0 23.5 23.5" width="23.5"><rect class="cls-1" height="23.5" width="23.5"/><rect class="cls-2" height="23.5" width="23.5"/></pattern><pattern data-name="New Pattern Swatch 3" height="23.5" id="New_Pattern_Swatch_3-5" patternTransform="translate(-110.47 -61.2) scale(0.99)" patternUnits="userSpaceOnUse" viewBox="0 0 23.5 23.5" width="23.5"><rect class="cls-1" height="23.5" width="23.5"/><rect class="cls-3" height="23.5" width="23.5"/></pattern><pattern data-name="New Pattern Swatch 3" height="23.5" id="New_Pattern_Swatch_3-7" patternTransform="translate(-41.44 -95.96) scale(0.73)" patternUnits="userSpaceOnUse" viewBox="0 0 23.5 23.5" width="23.5"><rect class="cls-1" height="23.5" width="23.5"/><rect class="cls-3" height="23.5" width="23.5"/></pattern><pattern data-name="New Pattern Swatch 2" height="23.5" id="New_Pattern_Swatch_2-5" patternTransform="matrix(-1.09, 0, 0, 1.09, 30.35, 4.27)" patternUnits="userSpaceOnUse" viewBox="0 0 23.5 23.5" width="23.5"><rect class="cls-1" height="23.5" width="23.5"/><rect class="cls-2" height="23.5" width="23.5"/></pattern><pattern data-name="New Pattern Swatch 3" height="23.5" id="New_Pattern_Swatch_3-9" patternTransform="matrix(-1.09, 0, 0, 1.09, 30.35, 4.27)" patternUnits="userSpaceOnUse" viewBox="0 0 23.5 23.5" width="23.5"><rect class="cls-1" height="23.5" width="23.5"/><rect class="cls-3" height="23.5" width="23.5"/></pattern><pattern data-name="New Pattern Swatch 2" height="23.5" id="New_Pattern_Swatch_2-7" patternTransform="translate(5.83 4.27) scale(1.09)" patternUnits="userSpaceOnUse" viewBox="0 0 23.5 23.5" width="23.5"><rect class="cls-1" height="23.5" width="23.5"/><rect class="cls-2" height="23.5" width="23.5"/></pattern><pattern data-name="New Pattern Swatch 3" height="23.5" id="New_Pattern_Swatch_3-11" patternTransform="translate(5.83 4.27) scale(1.09)" patternUnits="userSpaceOnUse" viewBox="0 0 23.5 23.5" width="23.5"><rect class="cls-1" height="23.5" width="23.5"/><rect class="cls-3" height="23.5" width="23.5"/></pattern></defs><title/><path class="cls-4" d="M67,36.62A32,32,0,1,1,50.28,6.87,32.15,32.15,0,0,1,67,36.62Z"/><circle class="cls-5" cx="35" cy="35" r="32"/><path class="cls-6" d="M15.34,27a7.64,7.64,0,0,0,14.89,2.42,7.57,7.57,0,0,1-4.17,1.23A7.65,7.65,0,0,1,18.42,23a7.34,7.34,0,0,1,.4-2.41A7.65,7.65,0,0,0,15.34,27Z"/><path class="cls-7" d="M18.42,23a7.65,7.65,0,0,0,7.64,7.65,7.57,7.57,0,0,0,4.17-1.23,7.44,7.44,0,0,0,.4-2.42,7.64,7.64,0,0,0-11.81-6.41A7.34,7.34,0,0,0,18.42,23Z"/><circle cx="25.13" cy="26.99" r="3.56"/><circle class="cls-8" cx="22.99" cy="26.99" r="7.64"/><ellipse class="cls-9" cx="26.3" cy="26.8" rx="1.29" ry="1.49"/><path class="cls-10" d="M54.66,27a7.64,7.64,0,0,1-14.89,2.42,7.65,7.65,0,0,0,11.42-8.83A7.64,7.64,0,0,1,54.66,27Z"/><path class="cls-11" d="M51.58,23a7.65,7.65,0,0,1-11.81,6.42A7.44,7.44,0,0,1,39.38,27a7.64,7.64,0,0,1,11.81-6.41A7.61,7.61,0,0,1,51.58,23Z"/><circle cx="44.92" cy="26.99" r="3.56"/><circle class="cls-8" cx="47.02" cy="26.99" r="7.64"/><ellipse class="cls-12" cx="43.74" cy="26.8" rx="1.29" ry="1.49"/><path class="cls-13" d="M24.19,56.69l6.58,3.52a20.28,20.28,0,0,1,2-2.68l-5.87.59C31.55,50.93,40.48,45.38,45.09,44A28,28,0,0,0,24.19,56.69Z"/><path class="cls-14" d="M26.94,58.12l3.83,2.09,2-2.68a20.12,20.12,0,0,1,13-6.56l-.29-7-.43,0C40.48,45.38,31.55,50.93,26.94,58.12Z"/><path class="cls-5" d="M30.77,60.21a20.13,20.13,0,0,1,15-9.23l-.29-7A28,28,0,0,0,24.19,56.69Z"/><path class="cls-15" d="M45.81,56.69l-6.58,3.52a20.28,20.28,0,0,0-2-2.68l5.87.59C38.46,50.93,29.53,45.38,24.91,44A28,28,0,0,1,45.81,56.69Z"/><path class="cls-16" d="M43.06,58.12l-3.83,2.09-2-2.68a20.12,20.12,0,0,0-13-6.56l.3-7,.42,0C29.53,45.38,38.46,50.93,43.06,58.12Z"/><path class="cls-5" d="M39.24,60.21A20.16,20.16,0,0,0,24.2,51l.29-7A28,28,0,0,1,45.81,56.69Z"/></svg>