<?xml version="1.0" standalone="no"?><!DOCTYPE svg PUBLIC "-//W3C//DTD SVG 1.1//EN" "http://www.w3.org/Graphics/SVG/1.1/DTD/svg11.dtd"><svg t="1742947965591" class="icon" viewBox="0 0 1024 1024" version="1.1" xmlns="http://www.w3.org/2000/svg" p-id="1107" xmlns:xlink="http://www.w3.org/1999/xlink" width="200" height="200"><path d="M931.84 472.4736l-91.2896-91.0848V252.6208A62.1568 62.1568 0 0 0 778.24 190.4128h-128.6656L558.4896 99.328a62.1568 62.1568 0 0 0-87.9616 0L379.4432 190.4128H250.88a62.208 62.208 0 0 0-62.4128 62.208v128.768L97.28 472.4736a62.2592 62.2592 0 0 0 0 87.9616l91.0848 91.0848v128.768A62.208 62.208 0 0 0 250.88 842.496h128.5632l91.0848 91.0848a62.2592 62.2592 0 0 0 87.9616 0l91.0848-91.0848H778.24a62.1568 62.1568 0 0 0 62.1568-62.208v-128.768L931.84 560.4352a62.1568 62.1568 0 0 0 0-87.9616z" fill="#4FE99D" p-id="1108"></path><path d="M924.8256 567.296l-84.2752-84.2752V354.2528A62.208 62.208 0 0 0 778.24 291.84h-128.6656l-91.0848-90.88a62.2592 62.2592 0 0 0-87.9616 0L379.4432 291.84H250.88a62.208 62.208 0 0 0-62.4128 62.4128v128.768L104.2432 567.296l84.224 84.224v128.768A62.208 62.208 0 0 0 250.88 842.496h128.5632l91.0848 91.0848a62.2592 62.2592 0 0 0 87.9616 0l91.0848-91.0848H778.24a62.208 62.208 0 0 0 62.1568-62.208v-128.768z" fill="#4EE5A1" p-id="1109"></path><path d="M836.7104 584.704V455.68a62.208 62.208 0 0 0-62.208-62.208h-128.768l-91.0848-90.8288a62.1568 62.1568 0 0 0-87.9616 0L375.6032 393.6768H246.8352A62.208 62.208 0 0 0 184.6272 455.68v129.024l-31.488 31.488 35.328 35.328v128.768A62.208 62.208 0 0 0 250.88 842.496h128.5632l91.0848 91.0848a62.2592 62.2592 0 0 0 87.9616 0l91.0848-91.0848H778.24a62.208 62.208 0 0 0 62.1568-62.208v-128.768l31.488-31.488z" fill="#45DDA3" p-id="1110"></path><path d="M840.5504 557.568A62.208 62.208 0 0 0 778.24 495.36h-128.6656L558.4896 404.48a62.1568 62.1568 0 0 0-87.9616 0L379.4432 495.36H250.88a62.208 62.208 0 0 0-62.4128 62.208v222.72A62.208 62.208 0 0 0 250.88 842.496h128.5632l91.0848 91.0848a62.2592 62.2592 0 0 0 87.9616 0l91.0848-91.0848H778.24a62.208 62.208 0 0 0 62.1568-62.208v-222.72z" fill="#48D3A1" p-id="1111"></path><path d="M250.88 842.496h128.5632l91.0848 91.0848a62.2592 62.2592 0 0 0 87.9616 0l91.0848-91.0848H778.24a62.208 62.208 0 0 0 61.44-51.6096l-2.9184-2.9184v-128.768a62.208 62.208 0 0 0-62.208-62.208h-128.8192l-91.0848-91.0848a62.2592 62.2592 0 0 0-87.9616 0L375.6032 596.992H246.8352a62.1568 62.1568 0 0 0-61.44 51.6096l2.8672 2.9184v128.768A62.208 62.208 0 0 0 250.88 842.496z" fill="#3ACC9B" p-id="1112"></path><path d="M470.4768 681.9328a56.832 56.832 0 0 1-43.264-19.8656l-111.4112-129.8944a40.96 40.96 0 1 1 62.1568-53.3504l91.392 106.496 173.1072-228.2496a40.96 40.96 0 0 1 65.28 49.5104l-191.7952 252.8256a56.832 56.832 0 0 1-43.7248 22.528z" fill="#FFFFFF" p-id="1113"></path></svg>