<?xml version="1.0" standalone="no"?><!DOCTYPE svg PUBLIC "-//W3C//DTD SVG 1.1//EN" "http://www.w3.org/Graphics/SVG/1.1/DTD/svg11.dtd"><svg t="1742948149007" class="icon" viewBox="0 0 1025 1024" version="1.1" xmlns="http://www.w3.org/2000/svg" p-id="46339" xmlns:xlink="http://www.w3.org/1999/xlink" width="200.1953125" height="200"><path d="M929.16256 645.44L798.28256 283.52a128 128 0 1 0-160-13.76l-224 393.6a147.2 147.2 0 0 0-102.08 0l-119.04-192a110.72 110.72 0 1 0-81.92 36.8 110.08 110.08 0 0 0 27.52-3.84l116.48 192a160 160 0 1 0 211.84-2.24l224-393.92a125.76 125.76 0 0 0 32 4.8h11.84l131.52 362.88a96 96 0 1 0 62.72-22.4z" fill="#ff4400" p-id="46340"></path></svg>