<?xml version="1.0" standalone="no"?><!DOCTYPE svg PUBLIC "-//W3C//DTD SVG 1.1//EN" "http://www.w3.org/Graphics/SVG/1.1/DTD/svg11.dtd"><svg t="1742948639264" class="icon" viewBox="0 0 1024 1024" version="1.1" xmlns="http://www.w3.org/2000/svg" p-id="65660" xmlns:xlink="http://www.w3.org/1999/xlink" width="200" height="200"><path d="M825.051429 73.142857c69.485714 0 125.805714 56.246857 125.805714 125.805714v626.102858A125.805714 125.805714 0 0 1 825.051429 950.857143H198.948571A125.805714 125.805714 0 0 1 73.142857 825.051429V198.948571C73.142857 129.462857 129.389714 73.142857 198.948571 73.142857zM730.258286 277.357714l-284.891429 348.16-137.142857-137.216a53.76 53.76 0 1 0-75.995429 76.068572l179.2 179.053714a53.76 53.76 0 0 0 79.579429-3.949714l322.413714-394.093715a53.76 53.76 0 1 0-83.163428-68.022857z" fill="#21c62c" p-id="65661"></path></svg>